<svg xmlns="http://www.w3.org/2000/svg"  viewBox="0 0 50 50" width="100px" height="100px"><path d="M 25.5 8 C 13.094 8 3 14.932172 3 23.451172 C 3 30.668172 10.243047 36.743594 19.998047 38.433594 L 19.998047 31.556641 C 15.830047 29.937641 13 27.128 13 24 C 13 19.121 19.869 15 28 15 C 35.129 15 40.151313 16.543875 42.445312 20.171875 C 43.623312 22.035875 44.011719 24.060891 44.011719 25.712891 C 44.011719 28.171891 43.050766 30.303297 41.259766 31.904297 C 41.261766 31.908297 41.711359 32.671219 42.318359 33.699219 C 45.849359 30.970219 48 27.381172 48 23.451172 C 48 14.932172 37.906 8 25.5 8 z M 22.945312 19.228516 C 22.421312 19.228516 21.998047 19.653734 21.998047 20.177734 L 21.998047 40.740234 C 21.998047 41.264234 22.421312 41.689453 22.945312 41.689453 L 28.207031 41.689453 C 28.731031 41.689453 29.15625 41.264234 29.15625 40.740234 L 29.15625 33.650391 L 31.445312 33.650391 C 31.952313 33.650391 32.165266 33.795312 32.697266 34.820312 C 33.219266 35.827312 36.042109 40.975359 36.162109 41.193359 C 36.329109 41.497359 36.647141 41.6875 36.994141 41.6875 L 43.058594 41.6875 C 43.399594 41.6875 43.712859 41.504031 43.880859 41.207031 C 44.048859 40.912031 44.045094 40.549813 43.871094 40.257812 L 39.548828 32.943359 C 39.210828 32.358359 38.732562 31.912266 38.226562 31.572266 C 40.124563 30.587266 42.011719 28.747891 42.011719 25.712891 C 42.011719 19.228891 35.465953 19.228516 33.001953 19.228516 L 22.945312 19.228516 z M 29.152344 24.634766 L 32.955078 24.634766 C 33.913078 24.634766 34.689453 25.409187 34.689453 26.367188 C 34.689453 27.325187 33.913078 28.101563 32.955078 28.101562 L 29.152344 28.101562 L 29.152344 24.634766 z M 30.828125 35 L 30.828125 38.998047 C 31.487125 38.880047 32.138203 38.752281 32.783203 38.613281 C 31.901203 36.993281 31.249125 35.788 30.828125 35 z"/></svg>