<svg version="1.1" xmlns="http://www.w3.org/2000/svg" xmlns:xlink="http://www.w3.org/1999/xlink" width="1200" height="800"><defs/><g transform="scale(2,2)"><g id="background-5c27f575"><rect fill="white" stroke="none" x="0" y="0" width="600" height="400" class="dcg-svg-background"/></g><g id="graphpaper-5c27f575"><g id="grid-5c27f575"><g stroke="rgb(0,0,0)" stroke-opacity="0.2500000000000001" stroke-miterlimit="10" stroke-dasharray=""><path fill="none" stroke="" class="dcg-svg-minor-gridline" d=""/><g transform="scale(1,1)"><path fill="none" stroke="" d=" M 328.264490287946 200.5 L 328.264490287946 200.5 A 21.76449028794599 21.76449028794599 0 1 1 328.26447940570176 200.47823551333946"/><g transform="scale(1,1)" stroke=""><path fill="none" stroke="" class="dcg-svg-minor-gridline" d=""/><g transform="scale(1,1)"><path fill="none" stroke="" d=" M 349.84515867774303 200.5 L 349.84515867774303 200.5 A 43.34515867774303 43.34515867774303 0 1 1 349.8451370051655 200.45665484854644"/><g transform="scale(1,1)" stroke=""><path fill="none" stroke="" class="dcg-svg-minor-gridline" d=""/><g transform="scale(1,1)"><path fill="none" stroke="" d=" M 371.42582706754 200.5 L 371.42582706754 200.5 A 64.92582706754001 64.92582706754001 0 1 1 371.4257946046292 200.4350741837534"/><g transform="scale(1,1)" stroke=""><path fill="none" stroke="" class="dcg-svg-minor-gridline" d=""/><g transform="scale(1,1)"><path fill="none" stroke="" d=" M 393.0064954573371 200.5 L 393.0064954573371 200.5 A 86.50649545733711 86.50649545733711 0 1 1 393.00645220409297 200.41349351896037"/><g transform="scale(1,1)" stroke=""><path fill="none" stroke="" class="dcg-svg-minor-gridline" d=""/><g transform="scale(1,1)"><path fill="none" stroke="" d=" M 414.5871638471341 200.5 L 414.5871638471341 200.5 A 108.0871638471341 108.0871638471341 0 1 1 414.5871098035567 200.39191285416732"/><g transform="scale(1,1)" stroke=""><path fill="none" stroke="" class="dcg-svg-minor-gridline" d=""/><g transform="scale(1,1)"><path fill="none" stroke="" d=" M 436.16783223693113 200.5 L 436.16783223693113 200.5 A 129.66783223693113 129.66783223693113 0 1 1 436.16776740302043 200.3703321893743"/><g transform="scale(1,1)" stroke=""><path fill="none" stroke="" class="dcg-svg-minor-gridline" d=""/><g transform="scale(1,1)"><path fill="none" stroke="" d=" M 457.7485006267282 200.5 L 457.7485006267282 200.5 A 151.24850062672817 151.24850062672817 0 1 1 457.74842500248417 200.34875152458127"/><g transform="scale(1,1)" stroke=""><path fill="none" stroke="" class="dcg-svg-minor-gridline" d=""/><g transform="scale(1,1)"><path fill="none" stroke="" d=" M 479.3291690165252 200.5 L 479.3291690165252 200.5 A 172.8291690165252 172.8291690165252 0 1 1 479.3290826019479 200.32717085978823"/><g transform="scale(1,1)" stroke=""><path fill="none" stroke="" class="dcg-svg-minor-gridline" d=""/><g transform="scale(1,1)"><path fill="none" stroke="" d=" M 500.90983740632225 200.5 L 500.90983740632225 200.5 A 194.40983740632225 194.40983740632225 0 1 1 500.90974020141164 200.3055901949952"/><g transform="scale(1,1)" stroke=""><path fill="none" stroke="" class="dcg-svg-minor-gridline" d=""/><g transform="scale(1,1)"><path fill="none" stroke="" d=" M 522.4905057961194 200.5 L 522.4905057961194 200.5 A 215.99050579611935 215.99050579611935 0 1 1 522.4903978008755 200.28400953020218"/><g transform="scale(1,1)" stroke=""><path fill="none" stroke="" class="dcg-svg-minor-gridline" d=""/><g transform="scale(1,1)"><path fill="none" stroke="" d=" M 544.0711741859163 200.5 L 544.0711741859163 200.5 A 237.57117418591633 237.57117418591633 0 1 1 544.0710554003391 200.26242886540913"/><g transform="scale(1,1)" stroke=""><path fill="none" stroke="" class="dcg-svg-minor-gridline" d=""/><g transform="scale(1,1)"><path fill="none" stroke="" d=" M 565.6518425757133 200.5 L 565.6518425757133 200.5 A 259.1518425757133 259.1518425757133 0 1 1 565.6517129998028 200.2408482006161"/><g transform="scale(1,1)" stroke=""><path fill="none" stroke="" class="dcg-svg-minor-gridline" d=""/><g transform="scale(1,1)"><path fill="none" stroke="" d=" M 587.2325109655103 200.5 L 587.2325109655103 200.5 A 280.7325109655103 280.7325109655103 0 1 1 587.2323705992665 200.21926753582306"/><g transform="scale(1,1)" stroke=""><path fill="none" stroke="" class="dcg-svg-minor-gridline" d=""/><g transform="scale(1,1)"><path fill="none" stroke="" d=" M 608.8131793553074 200.5 L 608.8131793553074 200.5 A 302.3131793553074 302.3131793553074 0 1 1 608.8130281987303 200.19768687103004"/><g transform="scale(1,1)" stroke=""><path fill="none" stroke="" class="dcg-svg-minor-gridline" d=""/><g transform="scale(1,1)"><path fill="none" stroke="" d=" M 630.3938477451045 200.5 L 630.3938477451045 200.5 A 323.8938477451045 323.8938477451045 0 1 1 630.3936857981942 200.17610620623702"/><g transform="scale(1,1)" stroke=""><path fill="none" stroke="" class="dcg-svg-minor-gridline" d=""/><g transform="scale(1,1)"><path fill="none" stroke="" d=" M 651.9745161349015 200.5 L 651.9745161349015 200.5 A 345.4745161349015 345.4745161349015 0 1 1 651.9743433976578 200.15452554144397"/><g transform="scale(1,1)" stroke=""><path fill="none" stroke="" class="dcg-svg-minor-gridline" paint-order="fill stroke markers" d=" M 306.5 200.5 L 673.5 200.5"/><path fill="none" stroke="" class="dcg-svg-minor-gridline" paint-order="fill stroke markers" d=" M 306.5 200.5 L 660.5 105.5"/><path fill="none" stroke="" class="dcg-svg-minor-gridline" paint-order="fill stroke markers" d=" M 306.5 200.5 L 624.5 17.5"/><path fill="none" stroke="" class="dcg-svg-minor-gridline" paint-order="fill stroke markers" d=" M 306.5 200.5 L 565.5 -58.5"/><path fill="none" stroke="" class="dcg-svg-minor-gridline" paint-order="fill stroke markers" d=" M 306.5 200.5 L 489.5 -116.5"/><path fill="none" stroke="" class="dcg-svg-minor-gridline" paint-order="fill stroke markers" d=" M 306.5 200.5 L 401.5 -153.5"/><path fill="none" stroke="" class="dcg-svg-minor-gridline" paint-order="fill stroke markers" d=" M 306.5 200.5 L 306.5 -165.5"/><path fill="none" stroke="" class="dcg-svg-minor-gridline" paint-order="fill stroke markers" d=" M 306.5 200.5 L 211.5 -153.5"/><path fill="none" stroke="" class="dcg-svg-minor-gridline" paint-order="fill stroke markers" d=" M 306.5 200.5 L 123.5 -116.5"/><path fill="none" stroke="" class="dcg-svg-minor-gridline" paint-order="fill stroke markers" d=" M 306.5 200.5 L 47.5 -58.5"/><path fill="none" stroke="" class="dcg-svg-minor-gridline" paint-order="fill stroke markers" d=" M 306.5 200.5 L -10.5 17.5"/><path fill="none" stroke="" class="dcg-svg-minor-gridline" paint-order="fill stroke markers" d=" M 306.5 200.5 L -47.5 105.5"/><path fill="none" stroke="" class="dcg-svg-minor-gridline" paint-order="fill stroke markers" d=" M 306.5 200.5 L -59.5 200.5"/><path fill="none" stroke="" class="dcg-svg-minor-gridline" paint-order="fill stroke markers" d=" M 306.5 200.5 L -47.5 295.5"/><path fill="none" stroke="" class="dcg-svg-minor-gridline" paint-order="fill stroke markers" d=" M 306.5 200.5 L -10.5 384.5"/><path fill="none" stroke="" class="dcg-svg-minor-gridline" paint-order="fill stroke markers" d=" M 306.5 200.5 L 47.5 460.5"/><path fill="none" stroke="" class="dcg-svg-minor-gridline" paint-order="fill stroke markers" d=" M 306.5 200.5 L 123.5 518.5"/><path fill="none" stroke="" class="dcg-svg-minor-gridline" paint-order="fill stroke markers" d=" M 306.5 200.5 L 211.5 554.5"/><path fill="none" stroke="" class="dcg-svg-minor-gridline" paint-order="fill stroke markers" d=" M 306.5 200.5 L 306.5 567.5"/><path fill="none" stroke="" class="dcg-svg-minor-gridline" paint-order="fill stroke markers" d=" M 306.5 200.5 L 401.5 554.5"/><path fill="none" stroke="" class="dcg-svg-minor-gridline" paint-order="fill stroke markers" d=" M 306.5 200.5 L 489.5 518.5"/><path fill="none" stroke="" class="dcg-svg-minor-gridline" paint-order="fill stroke markers" d=" M 306.5 200.5 L 565.5 460.5"/><path fill="none" stroke="" class="dcg-svg-minor-gridline" paint-order="fill stroke markers" d=" M 306.5 200.5 L 624.5 384.5"/><path fill="none" stroke="" class="dcg-svg-minor-gridline" paint-order="fill stroke markers" d=" M 306.5 200.5 L 660.5 295.5"/><path fill="none" stroke="" class="dcg-svg-major-gridline" d=""/><g transform="scale(1,1)"><path fill="none" stroke="" d=" M 393.0064954573371 200.5 L 393.0064954573371 200.5 A 86.50649545733711 86.50649545733711 0 1 1 393.00645220409297 200.41349351896037"/><g transform="scale(1,1)" stroke=""><path fill="none" stroke="" class="dcg-svg-major-gridline" d=""/><g transform="scale(1,1)"><path fill="none" stroke="" d=" M 479.3291690165252 200.5 L 479.3291690165252 200.5 A 172.8291690165252 172.8291690165252 0 1 1 479.3290826019479 200.32717085978823"/><g transform="scale(1,1)" stroke=""><path fill="none" stroke="" class="dcg-svg-major-gridline" d=""/><g transform="scale(1,1)"><path fill="none" stroke="" d=" M 565.6518425757133 200.5 L 565.6518425757133 200.5 A 259.1518425757133 259.1518425757133 0 1 1 565.6517129998028 200.2408482006161"/><g transform="scale(1,1)" stroke=""><path fill="none" stroke="" class="dcg-svg-major-gridline" d=""/><g transform="scale(1,1)"><path fill="none" stroke="" d=" M 651.9745161349015 200.5 L 651.9745161349015 200.5 A 345.4745161349015 345.4745161349015 0 1 1 651.9743433976578 200.15452554144397"/><g transform="scale(1,1)" stroke=""/></g></g></g></g></g></g></g></g></g></g></g></g></g></g></g></g></g></g></g></g></g></g></g></g></g></g></g></g></g></g></g></g></g></g></g></g></g></g></g></g></g><g id="axis-5c27f575"><g><g class="dcg-svg-polar-axis-value"><text fill="none" stroke="#ffffff" font-family="Arial" font-size="14px" font-style="normal" font-weight="normal" text-decoration="normal" x="471.10796201088823" y="190.63428366736775" text-anchor="middle" stroke-miterlimit="2" stroke-width="3" stroke-dasharray="">0</text><text fill="rgb(150,150,150)" stroke="none" font-family="Arial" font-size="14px" font-style="normal" font-weight="normal" text-decoration="normal" x="471.10796201088823" y="190.63428366736775" text-anchor="middle" fill-opacity="1">0</text></g><g class="dcg-svg-polar-axis-value"><text fill="none" stroke="#ffffff" font-family="Arial" font-size="14px" font-style="normal" font-weight="normal" text-decoration="normal" x="449.07930423119313" y="122.42221361099813" text-anchor="middle" stroke-miterlimit="2" stroke-width="3" stroke-dasharray="">π/6</text><text fill="rgb(150,150,150)" stroke="none" font-family="Arial" font-size="14px" font-style="normal" font-weight="normal" text-decoration="normal" x="449.07930423119313" y="122.42221361099813" text-anchor="middle" fill-opacity="1">π/6</text></g><g class="dcg-svg-polar-axis-value"><text fill="none" stroke="#ffffff" font-family="Arial" font-size="14px" font-style="normal" font-weight="normal" text-decoration="normal" x="388.8958919545186" y="62.238801334323604" text-anchor="middle" stroke-miterlimit="2" stroke-width="3" stroke-dasharray="">π/3</text><text fill="rgb(150,150,150)" stroke="none" font-family="Arial" font-size="14px" font-style="normal" font-weight="normal" text-decoration="normal" x="388.8958919545186" y="62.238801334323604" text-anchor="middle" fill-opacity="1">π/3</text></g><g class="dcg-svg-polar-axis-value"><text fill="none" stroke="#ffffff" font-family="Arial" font-size="14px" font-style="normal" font-weight="normal" text-decoration="normal" x="316.59788439814895" y="40.21014355462848" text-anchor="middle" stroke-miterlimit="2" stroke-width="3" stroke-dasharray="">π/2</text><text fill="rgb(150,150,150)" stroke="none" font-family="Arial" font-size="14px" font-style="normal" font-weight="normal" text-decoration="normal" x="316.59788439814895" y="40.21014355462848" text-anchor="middle" fill-opacity="1">π/2</text></g><g class="dcg-svg-polar-axis-value"><text fill="none" stroke="#ffffff" font-family="Arial" font-size="14px" font-style="normal" font-weight="normal" text-decoration="normal" x="224.47175184177934" y="62.238801334323576" text-anchor="middle" stroke-miterlimit="2" stroke-width="3" stroke-dasharray="">2π/3</text><text fill="rgb(150,150,150)" stroke="none" font-family="Arial" font-size="14px" font-style="normal" font-weight="normal" text-decoration="normal" x="224.47175184177934" y="62.238801334323576" text-anchor="middle" fill-opacity="1">2π/3</text></g><g class="dcg-svg-polar-axis-value"><text fill="none" stroke="#ffffff" font-family="Arial" font-size="14px" font-style="normal" font-weight="normal" text-decoration="normal" x="164.28833956510476" y="122.42221361099813" text-anchor="middle" stroke-miterlimit="2" stroke-width="3" stroke-dasharray="">5π/6</text><text fill="rgb(150,150,150)" stroke="none" font-family="Arial" font-size="14px" font-style="normal" font-weight="normal" text-decoration="normal" x="164.28833956510476" y="122.42221361099813" text-anchor="middle" fill-opacity="1">5π/6</text></g><g class="dcg-svg-polar-axis-value"><text fill="none" stroke="#ffffff" font-family="Arial" font-size="14px" font-style="normal" font-weight="normal" text-decoration="normal" x="142.25968178540967" y="190.63428366736773" text-anchor="middle" stroke-miterlimit="2" stroke-width="3" stroke-dasharray="">π</text><text fill="rgb(150,150,150)" stroke="none" font-family="Arial" font-size="14px" font-style="normal" font-weight="normal" text-decoration="normal" x="142.25968178540967" y="190.63428366736773" text-anchor="middle" fill-opacity="1">π</text></g><g class="dcg-svg-polar-axis-value"><text fill="none" stroke="#ffffff" font-family="Arial" font-size="14px" font-style="normal" font-weight="normal" text-decoration="normal" x="164.2883395651048" y="286.8463537237374" text-anchor="middle" stroke-miterlimit="2" stroke-width="3" stroke-dasharray="">7π/6</text><text fill="rgb(150,150,150)" stroke="none" font-family="Arial" font-size="14px" font-style="normal" font-weight="normal" text-decoration="normal" x="164.2883395651048" y="286.8463537237374" text-anchor="middle" fill-opacity="1">7π/6</text></g><g class="dcg-svg-polar-axis-value"><text fill="none" stroke="#ffffff" font-family="Arial" font-size="14px" font-style="normal" font-weight="normal" text-decoration="normal" x="224.47175184177922" y="347.0297660004119" text-anchor="middle" stroke-miterlimit="2" stroke-width="3" stroke-dasharray="">4π/3</text><text fill="rgb(150,150,150)" stroke="none" font-family="Arial" font-size="14px" font-style="normal" font-weight="normal" text-decoration="normal" x="224.47175184177922" y="347.0297660004119" text-anchor="middle" fill-opacity="1">4π/3</text></g><g class="dcg-svg-polar-axis-value"><text fill="none" stroke="#ffffff" font-family="Arial" font-size="14px" font-style="normal" font-weight="normal" text-decoration="normal" x="319.3786461168989" y="369.05842378010703" text-anchor="middle" stroke-miterlimit="2" stroke-width="3" stroke-dasharray="">3π/2</text><text fill="rgb(150,150,150)" stroke="none" font-family="Arial" font-size="14px" font-style="normal" font-weight="normal" text-decoration="normal" x="319.3786461168989" y="369.05842378010703" text-anchor="middle" fill-opacity="1">3π/2</text></g><g class="dcg-svg-polar-axis-value"><text fill="none" stroke="#ffffff" font-family="Arial" font-size="14px" font-style="normal" font-weight="normal" text-decoration="normal" x="388.8958919545186" y="347.0297660004119" text-anchor="middle" stroke-miterlimit="2" stroke-width="3" stroke-dasharray="">5π/3</text><text fill="rgb(150,150,150)" stroke="none" font-family="Arial" font-size="14px" font-style="normal" font-weight="normal" text-decoration="normal" x="388.8958919545186" y="347.0297660004119" text-anchor="middle" fill-opacity="1">5π/3</text></g><g class="dcg-svg-polar-axis-value"><text fill="none" stroke="#ffffff" font-family="Arial" font-size="14px" font-style="normal" font-weight="normal" text-decoration="normal" x="449.0793042311931" y="286.8463537237375" text-anchor="middle" stroke-miterlimit="2" stroke-width="3" stroke-dasharray="">11π/6</text><text fill="rgb(150,150,150)" stroke="none" font-family="Arial" font-size="14px" font-style="normal" font-weight="normal" text-decoration="normal" x="449.0793042311931" y="286.8463537237375" text-anchor="middle" fill-opacity="1">11π/6</text></g></g></g></g><g id="expressions-5c27f575"><g id="sketch-5c27f575"><title>Expression 1</title><path fill="#2d70b3" stroke="none" paint-order="stroke fill markers" d="" fill-opacity="0.4"/><g><path fill="none" stroke="#2d70b3" class="dcg-svg-curve" paint-order="fill stroke markers" d=" M -5.684341886080802e-14 201.7838477497516 L -5.684341886080802e-14 201.7838477497516 L 4.833984375 198.78639588454354 L 10.107421875 195.11585714385953 L 16.113281249999943 190.50443100726528 L 23.437499999999943 184.4011484279783 L 33.98437499999994 175.06480152720377 L 49.95117187499994 160.96386581456613 L 57.42187499999994 154.9026650183145 L 63.57421874999997 150.373812490428 L 68.84765624999994 146.9103045891482 L 73.68164062499994 144.12874242108745 L 78.07617187499997 141.96221890425602 L 82.17773437499997 140.27609156769222 L 85.98632812499994 139.01788530811373 L 89.64843749999997 138.09955003727737 L 93.16406249999997 137.4955283217778 L 96.53320312499994 137.17781234736114 L 99.90234375 137.11974021970295 L 103.27148437499997 137.3237174638403 L 106.64062499999997 137.79055368490086 L 110.00976562499994 138.5194576374865 L 113.52539062499994 139.5568591193719 L 117.18749999999997 140.9332179047762 L 120.99609374999997 142.6769909746514 L 125.09765624999994 144.89898363919085 L 129.49218749999997 147.65739120605195 L 134.17968749999997 151.00374030657713 L 139.30664062499994 155.10193465263336 L 145.16601562499994 160.2826006129375 L 151.75781249999997 166.64281007524283 L 159.52148437499997 174.68101353453673 L 170.80078124999994 186.95027963081887 L 185.44921874999997 202.8000562188261 L 193.21289062499994 210.64735881970125 L 199.65820312499994 216.65237244918532 L 205.51757812499994 221.60197111293533 L 210.79101562499994 225.57265932083732 L 215.47851562499994 228.67382750406134 L 219.87304687499997 231.18607153167747 L 223.97460937499997 233.1663699627009 L 227.78320312499994 234.67733861717636 L 231.44531249999997 235.82397106030666 L 234.96093749999997 236.6369698562702 L 238.33007812499994 237.1486639913836 L 241.69921875 237.39752093860622 L 245.06835937499997 237.3840769789544 L 248.43749999999997 237.1104658452401 L 251.80664062499994 236.5804057273187 L 255.32226562499994 235.75961220499215 L 258.98437499999994 234.6222184884551 L 262.79296875 233.1451638373376 L 266.89453125 231.23551088535945 L 271.2890625 228.84571954180245 L 276.123046875 225.84063904943062 L 281.396484375 222.16284817066105 L 287.54882812499994 217.42708772004724 L 294.873046875 211.30913319405718 L 305.71289062499994 201.70003992648554 L 320.94726562499994 188.24738678804079 L 328.41796874999994 182.17249230703177 L 334.57031249999994 177.62852011890374 L 339.84375 174.1495351306967 L 344.677734375 171.35195075926723 L 349.072265625 169.16951198410962 L 353.173828125 167.46752063483638 L 356.982421875 166.19383844426883 L 360.64453124999994 165.2600607434919 L 364.16015624999994 164.6408006437743 L 367.529296875 164.30819575330148 L 370.89843749999994 164.2350472911311 L 374.267578125 164.4238525994347 L 377.63671875 164.87551368270078 L 381.005859375 165.58933171439244 L 384.521484375 166.6111858476473 L 388.18359375 167.97167027379385 L 391.9921875 169.6994023513471 L 396.09375 171.90479537935872 L 400.48828125 174.64636067014396 L 405.17578125 177.97601184201065 L 410.302734375 182.05766744231215 L 416.015625 187.0869452736359 L 422.607421875 193.4209290551034 L 430.224609375 201.28191681721393 L 441.064453125 213.04979981649586 L 456.73828125 230.02191539380465 L 464.35546875 237.71968652817452 L 470.80078125 243.72867292989667 L 476.66015625 248.68261904527577 L 481.93359375 252.65775126668632 L 486.62109375 255.76323694841346 L 491.015625 258.2797955606452 L 495.1171875 260.26431375289155 L 498.92578125 261.7793334055639 L 502.587890625 262.92995141636277 L 506.103515625 263.7468327495453 L 509.47265624999994 264.2622753335769 L 512.841796875 264.5148846668187 L 516.2109375 264.50517417769436 L 519.580078125 264.2352548616213 L 522.94921875 263.70882242473266 L 526.46484375 262.8917220382928 L 530.126953125 261.75804910815884 L 533.935546875 260.28469906139816 L 538.037109375 258.3788149186056 L 542.431640625 255.9927698793388 L 547.265625 252.9914166319245 L 552.5390625 249.31716847358976 L 558.544921875 244.70228044769112 L 565.869140625 238.59596687062515 L 576.5625 229.12594842652203 L 592.236328125 215.2832676751056 L 599.70703125 209.2152796954945 L 600 208.98878004174247" stroke-linecap="round" stroke-linejoin="round" stroke-miterlimit="10" stroke-width="2.5" stroke-dasharray=""/></g></g><g id="sketch-5c27f575"><title>Expression 2</title><path fill="#2d70b3" stroke="none" paint-order="stroke fill markers" d="" fill-opacity="0.4"/><g><path fill="none" stroke="#2d70b3" class="dcg-svg-curve" paint-order="fill stroke markers" d=" M -5.684341886080802e-14 171.1154655599367 L -5.684341886080802e-14 171.1154655599367 L 4.541015624999943 168.76427997567455 L 9.521484375 165.826286704935 L 15.234374999999943 162.0594434514604 L 21.972656249999943 157.18449736482472 L 30.908203124999943 150.24748341763708 L 50.97656249999994 134.53137658708653 L 57.86132812499994 129.68151106394924 L 63.57421874999997 126.0628521756131 L 68.55468749999997 123.27854303388197 L 73.09570312499994 121.08556845366024 L 77.34374999999994 119.36408507033484 L 81.29882812499994 118.07056151131121 L 85.10742187499997 117.12358115197979 L 88.62304687499997 116.52121406860407 L 92.13867187499997 116.18867931509861 L 95.50781249999997 116.12957447074483 L 98.87695312499994 116.32906656346611 L 102.24609375 116.79004437071863 L 105.61523437499997 117.51380418280631 L 109.13085937499997 118.54885242869891 L 112.79296875 119.92852860204663 L 116.60156249999997 121.68476460501269 L 120.55664062499994 123.84712673763252 L 124.80468749999997 126.54084243847481 L 129.34570312499994 129.82557284877998 L 134.32617187499997 133.8789219153163 L 139.74609374999997 138.77920573652497 L 145.75195312499994 144.7336385183207 L 152.49023437499997 151.95953708636307 L 160.54687499999997 161.16177821200614 L 173.29101562499997 176.34929888053762 L 185.88867187499997 191.17910073567523 L 193.505859375 199.61368429880667 L 199.951171875 206.23888761125949 L 205.810546875 211.7478268024849 L 211.23046875 216.33576234923743 L 216.21093749999997 220.07246696757852 L 220.75195312499994 223.0474235535463 L 224.99999999999997 225.43628476153447 L 228.95507812499994 227.30437352487138 L 232.76367187499997 228.77007794438197 L 236.42578124999994 229.86590572733556 L 239.94140624999994 230.62623798627493 L 243.31054687499997 231.08639543060372 L 246.67968749999997 231.28507371694326 L 250.04882812499994 231.22516657895238 L 253.41796874999997 230.9111425742406 L 256.93359375 230.3190604925328 L 260.59570312499994 229.42433826693934 L 264.404296875 228.20539976671185 L 268.359375 226.6446706182566 L 272.607421875 224.65597664822425 L 277.294921875 222.11851380733376 L 282.421875 218.9781561104481 L 288.28125 214.99582348087444 L 295.458984375 209.68004924638453 L 306.005859375 201.36862580730497 L 320.50781249999994 190.00223384414332 L 327.685546875 184.84389843407203 L 333.544921875 181.03805860185759 L 338.671875 178.08480840457102 L 343.359375 175.742773564083 L 347.607421875 173.9493055735193 L 351.5625 172.5841135794035 L 355.37109374999994 171.564457286261 L 359.033203125 170.87005752484092 L 362.548828125 170.47695917417744 L 365.91796874999994 170.3585255559091 L 369.287109375 170.49779411092223 L 372.65624999999994 170.89802038703456 L 376.025390625 171.5608706604706 L 379.541015625 172.53259387788665 L 383.056640625 173.7885532484048 L 386.71875 175.39511869253246 L 390.673828125 177.46483628611995 L 394.775390625 179.96697425780422 L 399.169921875 183.0326663318193 L 404.00390625 186.83808731172797 L 409.27734375 191.4661468562659 L 415.13671875 197.12835957955113 L 421.58203125 203.89293827992583 L 429.052734375 212.27967799731343 L 439.306640625 224.38067684922785 L 457.32421875 245.6965893543211 L 464.94140625 254.11302517442857 L 471.38671875 260.7176945952445 L 477.24609375 266.2042500879943 L 482.666015625 270.76869674744927 L 487.646484375 274.4817828129994 L 492.1875 277.4337797530038 L 496.435546875 279.80016381918654 L 500.390625 281.64665301156924 L 504.19921875 283.0911181589022 L 507.861328125 284.16627255353296 L 511.376953125 284.9066667488533 L 514.74609375 285.3477567287622 L 518.115234375 285.5275243603249 L 521.484375 285.4489785459192 L 524.853515625 285.11670135548474 L 528.369140625 284.50610367021386 L 532.03125 283.5928017030385 L 535.83984375 282.355447619501 L 539.94140625 280.7127532715564 L 544.3359375 278.62056886722934 L 549.0234375 276.0442169839624 L 554.296875 272.7712656736054 L 560.302734375 268.64043166275104 L 567.626953125 263.16645064737827 L 579.345703125 253.8877406514936 L 591.796875 244.16669968349333 L 598.974609375 239.0147972188826 L 600 238.3203978519276" stroke-linecap="round" stroke-linejoin="round" stroke-miterlimit="10" stroke-width="2.5" stroke-dasharray=""/></g></g><g id="sketch-5c27f575"><title>Expression 3</title><path fill="#000000" stroke="none" paint-order="stroke fill markers" d="" fill-opacity="0.4"/><g><path fill="none" stroke="#000000" class="dcg-svg-curve" paint-order="fill stroke markers" d=" M -5.684341886080802e-14 140.44708337012182 L -5.684341886080802e-14 140.44708337012182 L 4.394531249999943 138.6162953630409 L 9.082031249999943 136.3392097718831 L 14.355468749999943 133.43057943839858 L 20.507812499999943 129.65955901166683 L 28.271484375 124.49059461077326 L 53.46679687499997 107.40251737671352 L 59.61914062499994 103.81776312044114 L 64.89257812499994 101.11071681417783 L 69.58007812499994 99.04277100255577 L 73.82812499999994 97.47965259079612 L 77.78320312499994 96.31520694932284 L 81.59179687499997 95.47792142147843 L 85.25390624999994 94.95021053696574 L 88.76953124999994 94.71048836019142 L 92.13867187499997 94.73416431278372 L 95.50781249999997 95.01197353092994 L 98.87695312499994 95.54837968615122 L 102.24609375 96.34627155590374 L 105.76171875 97.45902393199088 L 109.42382812499994 98.92195167932664 L 113.23242187499997 100.76942859693806 L 117.18749999999997 103.03395352514642 L 121.43554687499994 105.84858518899341 L 125.97656249999997 109.27862948039807 L 130.95703124999994 113.51439497373792 L 136.37695312499994 118.64533057910519 L 142.08984374999997 124.58241950520191 L 148.38867187499997 131.67001685743864 L 155.56640624999994 140.30141141895865 L 164.79492187499997 151.98833072195762 L 188.96484375 182.88022769545273 L 196.14257812499994 191.33451730652564 L 202.44140624999994 198.220966421031 L 208.154296875 203.9423621507248 L 213.57421875 208.84295196368254 L 218.55468749999997 212.84813269117055 L 223.09570312499994 216.05481319243657 L 227.34374999999997 218.6514137626 L 231.29882812499994 220.70695061552877 L 235.10742187499997 222.34939406745605 L 238.76953124999994 223.61317569788727 L 242.28515624999994 224.53425223540964 L 245.80078124999994 225.1700154915237 L 249.16992187499997 225.5141120845701 L 252.53906249999997 225.60277562748186 L 256.05468749999994 225.42905283706926 L 259.57031249999994 224.99147488116648 L 263.232421875 224.26577672666428 L 267.041015625 223.23287549680893 L 271.142578125 221.82256903830967 L 275.537109375 219.99519568703795 L 280.224609375 217.72133916161255 L 285.498046875 214.81578552547978 L 291.65039062499994 211.04755228842436 L 299.4140625 205.880790839817 L 324.755859375 188.69930426540552 L 330.76171874999994 185.2013290910343 L 336.03515624999994 182.49087269646023 L 340.72265625 180.4194260278577 L 344.970703125 178.85278890861866 L 348.92578125 177.6848022968453 L 352.734375 176.84389386740276 L 356.396484375 176.31252883021006 L 359.912109375 176.06916603272307 L 363.28124999999994 176.08925377509857 L 366.650390625 176.36339977659284 L 370.01953124999994 176.89609001826494 L 373.388671875 177.69023590804093 L 376.904296875 178.7990720560809 L 380.56640625 180.25793999829304 L 384.375 182.10124691327596 L 388.330078125 184.36153211538368 L 392.578125 187.17175297361393 L 397.119140625 190.59729316564886 L 402.099609375 194.82842702707214 L 407.51953125 199.9547586171065 L 413.232421875 205.88756442443542 L 419.53125 212.97120499173147 L 426.708984375 221.59917234773744 L 435.791015625 233.09470483625265 L 460.25390625 264.35696801652426 L 467.431640625 272.80344456561437 L 473.73046875 279.6811598388947 L 479.443359375 285.39327767991233 L 484.86328125 290.28402444910455 L 489.84375 294.2794016068122 L 494.384765625 297.47662363971784 L 498.6328125 300.0640225334023 L 502.587890625 302.11076516173296 L 506.396484375 303.7446036479478 L 510.05859375 305.00004815010533 L 513.57421875 305.91311925077423 L 517.08984375 306.5409291344266 L 520.458984375 306.8775014077406 L 523.828125 306.9587827106223 L 527.34375 306.7775568087323 L 530.859375 306.33272914130583 L 534.521484375 305.5998004682485 L 538.330078125 304.5597823815058 L 542.431640625 303.142333624709 L 546.826171875 301.3079798497688 L 551.513671875 299.02752323054824 L 556.787109375 296.11568223892175 L 562.939453125 292.34175532341266 L 570.703125 287.1704977396447 L 595.751953125 270.1760843082521 L 600 267.6520156621127" stroke-linecap="round" stroke-linejoin="round" stroke-miterlimit="10" stroke-width="2.5" stroke-dasharray=""/></g></g><g id="sketch-5c27f575"><title>Expression 4</title><path fill="#2d70b3" stroke="none" paint-order="stroke fill markers" d="" fill-opacity="0.4"/><g><path fill="none" stroke="#2d70b3" class="dcg-svg-curve" paint-order="fill stroke markers" d=" M -5.684341886080802e-14 109.7787011803069 L -5.684341886080802e-14 109.7787011803069 L 4.248046875 108.43868586805226 L 8.789062499999943 106.7010794489837 L 13.769531249999943 104.47854701265732 L 19.482421875 101.59177387186091 L 26.513671875 97.67306101736052 L 38.37890624999994 90.6207054928674 L 48.92578124999994 84.50622492413956 L 55.51757812499994 81.04601718512143 L 61.08398437499997 78.46875666304778 L 65.91796875 76.5529205264093 L 70.31249999999994 75.11416481976775 L 74.41406249999997 74.06193045299467 L 78.22265624999994 73.35793489446316 L 81.88476562499994 72.94561761598708 L 85.40039062499994 72.80659116467987 L 88.91601562499994 72.92952880404421 L 92.43164062499994 73.32294010307203 L 95.94726562499994 73.99354113578246 L 99.46289062499994 74.94620994732877 L 102.97851562499994 76.18395420796722 L 106.64062499999997 77.77759461545615 L 110.44921875 79.76336490288027 L 114.40429687499997 82.17603790433823 L 118.65234375 85.15727795959938 L 123.19335937499994 88.77675546162844 L 128.17382812499994 93.23714865838458 L 133.44726562499997 98.48369008753237 L 139.01367187499997 104.55519435242353 L 145.01953124999994 111.64795612441142 L 151.75781249999997 120.16500725579816 L 159.81445312499994 130.93227180404892 L 172.11914062499997 148.03097048423672 L 185.88867187499997 167.02007073104542 L 193.79882812499994 177.34911711843736 L 200.39062499999997 185.4115488249631 L 206.396484375 192.21101197228214 L 211.96289062499994 197.97089810491335 L 217.23632812499994 202.89171885143676 L 222.21679687499997 207.0216840224595 L 226.75781249999997 210.3243674822619 L 231.00585937499997 212.99904906646051 L 234.96093749999997 215.12010453682552 L 238.76953124999994 216.82174663307237 L 242.43164062499994 218.14120774954466 L 245.94726562499994 219.1166926682296 L 249.46289062499994 219.80979874075464 L 252.97851562499994 220.22525478267406 L 256.49414062499994 220.36963069060988 L 260.00976562499994 220.25129387765253 L 263.671875 219.8595843888503 L 267.48046875 219.17584206675406 L 271.435546875 218.18577527533526 L 275.68359375 216.82898442076197 L 280.224609375 215.07541790929764 L 285.20507812499994 212.8379284103441 L 290.91796875 209.93752752778906 L 297.94921875 206.007547995609 L 310.25390625 198.6883026011156 L 320.36132812499994 192.84755116121244 L 326.95312499999994 189.40156218485703 L 332.373046875 186.90285165199398 L 337.20703124999994 184.9936809985796 L 341.6015625 183.56180128982126 L 345.703125 182.51662140322026 L 349.51171875 181.8196702077618 L 353.173828125 181.41452250289166 L 356.7198739874976 181.28268592551294 L 360.205078125 181.4130951454836 L 363.720703125 181.81418077963897 L 367.236328125 182.49261783849536 L 370.751953125 183.45323240697635 L 374.267578125 184.69897946749 L 377.9296875 186.3009595689097 L 381.73828125 188.29534322044174 L 385.693359375 190.71682528167165 L 389.94140625 193.70728974383158 L 394.482421875 197.33625755039134 L 399.462890625 201.8064977774947 L 404.736328125 207.06268398074877 L 410.302734375 213.1433411853675 L 416.30859375 220.24462350167119 L 423.046875 228.76936254172475 L 431.10351562499994 239.54297376220882 L 443.408203125 256.6449500807828 L 457.03125 275.4317942240366 L 464.94140625 285.7645420447988 L 471.533203125 293.83112950021973 L 477.5390625 300.63514091433353 L 483.10546875 306.39981256641215 L 488.37890625 311.3255991304508 L 493.359375 315.4605725005131 L 497.900390625 318.7680343403733 L 502.1484375 321.44732087743034 L 506.25 323.6445529801271 L 510.05859375 325.3375253352905 L 513.720703125 326.64864821764866 L 517.236328125 327.61618308135246 L 520.751953125 328.30144608639563 L 524.267578125 328.70921805525285 L 527.8384469005757 328.8461522459327 L 531.298828125 328.72056840577034 L 534.9609375 328.32167119698914 L 538.76953125 327.63086295898165 L 542.724609375 326.63395833512374 L 546.97265625 325.27045496161605 L 551.513671875 323.51050822823333 L 556.494140625 321.26704749281635 L 562.353515625 318.28278493909954 L 569.53125 314.25664143321836 L 583.30078125 306.0610682617543 L 592.3828125 300.86924527391756 L 598.828125 297.54380352390086 L 600 296.9836334722978" stroke-linecap="round" stroke-linejoin="round" stroke-miterlimit="10" stroke-width="2.5" stroke-dasharray=""/></g></g><g id="sketch-5c27f575"><title>Expression 5</title><path fill="#000000" stroke="none" paint-order="stroke fill markers" d="" fill-opacity="0.4"/><g><path fill="none" stroke="#000000" class="dcg-svg-curve" paint-order="fill stroke markers" d=" M -5.684341886080802e-14 79.110318990492 L -5.684341886080802e-14 79.110318990492 L 4.101562499999943 78.23145022468245 L 8.496093749999943 77.0032020321357 L 13.330078124999943 75.35126220961459 L 18.749999999999943 73.18574237230229 L 25.195312499999943 70.28243855918777 L 34.57031249999994 65.6922909646151 L 47.90039062499994 59.19749518112749 L 54.49218749999994 56.339062757147076 L 59.91210937499997 54.303461382387724 L 64.74609374999994 52.793178242447 L 69.14062499999994 51.71326224858325 L 73.24218749999997 50.98824382903243 L 77.05078124999994 50.58210189188438 L 80.69159098833617 50.451354100037264 L 84.22851562499994 50.57876643536406 L 87.74414062499994 50.964912648949365 L 91.25976562499994 51.61889273137069 L 94.77539062499994 52.54802613064473 L 98.29101562499994 53.75780776928309 L 101.95312499999997 55.320326119719226 L 105.76171875 57.2746033023611 L 109.71679687499997 59.65891072915417 L 113.96484375 62.61861691321343 L 118.50585937499997 66.23007959571282 L 123.33984374999997 70.56635228156316 L 128.46679687499994 75.69316408740079 L 133.74023437499994 81.49572095360445 L 139.30664062499994 88.15106214337376 L 145.45898437499997 96.06422166579758 L 152.34374999999997 105.49522849829602 L 160.69335937499997 117.53613318432693 L 174.60937499999994 138.30604820180832 L 186.76757812499994 156.20468133605976 L 194.53124999999997 167.05702833722486 L 201.123046875 175.7145290569828 L 207.12890624999994 183.0446485476074 L 212.69531249999997 189.28776567789427 L 217.96874999999997 194.65988596763268 L 222.94921875 199.2113118395901 L 227.78320312499994 203.11709110791676 L 232.17773437499997 206.21429214845438 L 236.42578124999994 208.78849353289087 L 240.38085937499997 210.81026041098096 L 244.18945312499994 212.4150333792009 L 247.85156249999997 213.64369300422277 L 251.36718749999997 214.537262495704 L 254.88281249999997 215.1565146117034 L 258.39843749999994 215.50899907934607 L 261.91406249999994 215.60403454638646 L 265.576171875 215.4411726044048 L 269.384765625 215.00360666602822 L 273.33984375 214.2791147080955 L 277.58789062499994 213.2200668721662 L 282.12890625 211.80044426767242 L 287.255859375 209.8908234382573 L 293.115234375 207.38818672761425 L 300.5859375 203.8549600972602 L 322.55859374999994 193.24440090518559 L 328.41796874999994 190.86615104777218 L 333.544921875 189.0963885949129 L 338.0859375 187.82317804279543 L 342.333984375 186.91877589575805 L 346.2890625 186.35228670118582 L 350.09765625 186.078385515784 L 353.759765625 186.08234734755757 L 357.275390625 186.3451253782649 L 360.791015625 186.87166198262315 L 364.306640625 187.67012167887708 L 367.822265625 188.74686587919837 L 371.48437499999994 190.16924126025341 L 375.146484375 191.9014008499901 L 379.1015625 194.12085177499418 L 383.203125 196.80279662373587 L 387.59765625 200.09948991768752 L 392.28515625 204.08577019284806 L 397.265625 208.83116921983287 L 402.392578125 214.23379677692688 L 407.8125 220.47208799488772 L 413.671875 227.7620374954721 L 420.1171875 236.34206872839064 L 427.58789062499994 246.86909476279772 L 437.40234375 261.3190981925433 L 458.935546875 293.19817083835335 L 466.552734375 303.7748388273479 L 472.998046875 312.1737459029998 L 478.857421875 319.26739159534384 L 484.27734375 325.30049123471167 L 489.404296875 330.49112496688105 L 494.384765625 335.0168123850881 L 499.21875 338.8964910447133 L 503.61328124999994 341.96928535876725 L 507.71484375 344.4385181571482 L 511.669921875 346.451273124117 L 515.478515625 348.04739497860055 L 519.140625 349.2678247204327 L 522.65625 350.15363086999344 L 526.171875 350.76530639044927 L 529.6875 351.11045124888597 L 533.203125 351.1984327615762 L 536.865234375 351.02857711178785 L 540.673828125 350.5841743966855 L 544.62890625 349.85311020061175 L 548.876953125 348.7876639638152 L 553.41796875 347.36202658876766 L 558.544921875 345.4467204384315 L 564.404296875 342.93911968088446 L 571.875 339.4020705060771 L 593.701171875 328.8605817208695 L 599.560546875 326.4795815826778 L 600 326.3152512824829" stroke-linecap="round" stroke-linejoin="round" stroke-miterlimit="10" stroke-width="2.5" stroke-dasharray=""/></g></g><g id="sketch-5c27f575"><title>Expression 6</title><path fill="#2d70b3" stroke="none" paint-order="stroke fill markers" d="" fill-opacity="0.4"/><g><path fill="none" stroke="#2d70b3" class="dcg-svg-curve" paint-order="fill stroke markers" d=" M -5.684341886080802e-14 48.44193680067713 L -5.684341886080802e-14 48.44193680067713 L 3.955078124999943 47.99458717069771 L 8.203124999999943 47.24556655202804 L 12.744140624999943 46.17272731748298 L 17.871093749999943 44.67517698485469 L 23.876953124999943 42.618628066919314 L 31.933593749999943 39.53166419645186 L 48.63281249999994 33.05803268158286 L 54.785156249999915 31.03106560845694 L 59.91210937499997 29.626290130072817 L 64.59960937499997 28.625778909973604 L 68.84765624999994 27.992221765073708 L 72.80273437499997 27.663942086351284 L 76.61132812499994 27.607968200717977 L 80.27343749999997 27.81206656813876 L 83.93554687499997 28.283577202568665 L 87.45117187499997 28.99935289118085 L 90.96679687499997 29.98227157337297 L 94.62890624999994 31.298249273125464 L 98.29101562499994 32.918527141968156 L 102.09960937499997 34.93085629042699 L 106.05468749999997 37.37592952232603 L 110.30273437499997 40.40461532209292 L 114.69726562499994 43.97147993759182 L 119.53124999999997 48.39294125321186 L 124.51171874999997 53.47422317172831 L 129.63867187499994 59.23323099883555 L 135.05859374999997 65.86239461189669 L 140.91796874999997 73.59393412505477 L 147.36328124999994 82.68561819118824 L 154.68749999999997 93.6193686969665 L 163.91601562499994 108.02609808926726 L 190.28320312499994 149.55415010883738 L 197.607421875 160.26208949978928 L 203.90624999999997 168.9054909729224 L 209.76562499999997 176.38007736929802 L 215.185546875 182.74333209353162 L 220.31249999999997 188.22971322274384 L 225.29296875 193.0302314722115 L 230.12695312499994 197.1677456230637 L 234.66796875 200.5721497204829 L 238.91601562499994 203.32692635208193 L 243.01757812499994 205.59029401776576 L 246.82617187499997 207.3447592812077 L 250.63476562499994 208.7690359130907 L 254.29687499999997 209.8333628503086 L 257.958984375 210.6067418015759 L 261.62109375 211.09941719495154 L 265.283203125 211.3236530345307 L 269.091796875 211.28737672165758 L 273.046875 210.9780461814668 L 277.1484375 210.38872504824408 L 281.54296875 209.4848782090184 L 286.37695312499994 208.20809659697846 L 291.796875 206.48764073095816 L 298.53515625 204.03742797746992 L 310.40039062499994 199.34424735821588 L 319.62890624999994 195.84145569861246 L 325.78124999999994 193.80437813564168 L 330.90820312499994 192.38844457741865 L 335.59570312499994 191.37569835287576 L 339.84375 190.72949918162223 L 343.798828125 190.3882317802319 L 347.607421875 190.31874556425973 L 351.26953125 190.50901986369303 L 354.931640625 190.9659920183368 L 358.447265625 191.66723570100152 L 361.962890625 192.63515670904704 L 365.62499999999994 193.93512390291892 L 369.287109375 195.53910910166266 L 373.095703125 197.53432057368622 L 377.05078125 199.96157173469788 L 381.298828125 202.97123169825014 L 385.693359375 206.51873277704186 L 390.52734375 210.91950475227645 L 395.5078125 215.98040476039318 L 400.634765625 221.71970472829136 L 406.0546875 228.3297435495256 L 411.9140625 236.04292443362706 L 418.21289062499994 244.90526637014364 L 425.537109375 255.81289897502222 L 434.61914062499994 269.96760315510073 L 462.01171875 313.0753288521774 L 469.189453125 323.530060954029 L 475.48828125 332.13705600364113 L 481.201171875 339.3938214717704 L 486.62109375 345.73187287433893 L 491.748046875 351.1925622005772 L 496.728515625 355.96674920579255 L 501.5625 360.0777468044276 L 506.103515625 363.4566796129708 L 510.3515625 366.18739043933346 L 514.453125 368.42752754703366 L 518.26171875 370.1606118139831 L 522.0703125 371.5638613131199 L 525.732421875 372.608455921108 L 529.39453125 373.36272297792107 L 533.056640625 373.8370444158391 L 536.71875 374.0438162900395 L 540.52734375 373.99045654232583 L 544.482421875 373.6646905651212 L 548.583984375 373.05987517169973 L 552.978515625 372.14133506822475 L 557.8125 370.8508469628763 L 563.37890625 369.0679594495583 L 570.263671875 366.545640440562 L 595.60546875 356.94283024424925 L 600 355.646869092668" stroke-linecap="round" stroke-linejoin="round" stroke-miterlimit="10" stroke-width="2.5" stroke-dasharray=""/></g></g><g id="sketch-5c27f575"><title>Expression 7</title><path fill="#000000" stroke="none" paint-order="stroke fill markers" d="" fill-opacity="0.4"/><g><path fill="none" stroke="#000000" class="dcg-svg-curve" paint-order="fill stroke markers" d=" M -5.684341886080802e-14 17.77355461086222 L -5.684341886080802e-14 17.77355461086222 L 3.955078124999943 17.721712793382835 L 8.203124999999943 17.39749686221313 L 12.744140624999943 16.778759190168046 L 17.724609375 15.825710070015674 L 23.437499999999943 14.453355289088933 L 30.908203124999943 12.359674031062639 L 49.21874999999994 7.105302663743316 L 55.07812499999994 5.782521757743325 L 60.05859374999997 4.928132049581876 L 64.59960937499997 4.417357657658698 L 68.70117187499997 4.211117584140652 L 72.65624999999994 4.268563301690136 L 76.46484375 4.583272125264614 L 80.12695312499994 5.143170742709032 L 83.78906249999997 5.969944315394628 L 87.45117187499997 7.07608788886597 L 91.11328124999994 8.472086527166084 L 94.92187499999997 10.240409549252774 L 98.87695312499994 12.42563217689164 L 102.97851562499994 15.072362326022557 L 107.22656249999997 18.224185347975265 L 111.76757812499994 22.05331026423707 L 116.60156249999997 26.6436349059382 L 121.58203124999994 31.911824181844878 L 126.70898437499994 37.88126060933544 L 131.982421875 44.56433340178401 L 137.69531249999997 52.37429777076457 L 143.84765624999994 61.37296614598728 L 150.73242187499997 72.05053438603883 L 158.93554687499997 85.40950344870762 L 170.94726562499997 105.66947680085913 L 186.32812499999994 131.5022527495904 L 194.53124999999997 144.62651395759508 L 201.41601562499994 155.03166598431267 L 207.568359375 163.73456488444998 L 213.13476562499994 171.04643790210767 L 218.40820312499994 177.42723967594156 L 223.53515624999994 183.0823012105503 L 228.36914062499994 187.89234415121712 L 233.20312499999997 192.1775324010783 L 237.74414062499994 195.71473610751238 L 242.13867187499997 198.68352297566386 L 246.24023437499997 201.05210763680108 L 250.19531249999997 202.9725046716083 L 254.00390624999994 204.49105348884498 L 257.81249999999994 205.69413884344334 L 261.474609375 206.5640310212259 L 265.13671875 207.1649553697867 L 268.9453125 207.51979372488069 L 272.900390625 207.61584420156623 L 277.00195312499994 207.44599515666488 L 281.25 207.00982352912533 L 285.9375 206.26047701803708 L 291.2109375 205.13885656882564 L 297.50976562499994 203.50957788132075 L 307.03125 200.72205898872235 L 318.45703124999994 197.43977556110931 L 324.60937499999994 195.95951126971363 L 329.73632812499994 194.99101223281173 L 334.42382812499994 194.37498364066187 L 338.671875 194.07883495549652 L 342.626953125 194.05603287155242 L 346.435546875 194.28704989874475 L 350.244140625 194.78547814999533 L 353.90624999999994 195.53263942899193 L 357.568359375 196.5557124796456 L 361.23046874999994 197.86578003294179 L 365.03906249999994 199.54236500680423 L 368.84765624999994 201.54680046864803 L 372.802734375 203.9808290626783 L 377.05078125 206.99826766988298 L 381.4453125 210.55855795425762 L 386.1328125 214.84233953609672 L 390.966796875 219.77319142140485 L 395.947265625 225.37810894987564 L 401.220703125 231.86192712519056 L 406.787109375 239.27338293939408 L 412.79296875 247.85714964140502 L 419.38476562499994 257.88115631705733 L 427.00195312499994 270.0887760187404 L 436.962890625 286.71879426298204 L 459.66796875 324.837396415675 L 467.431640625 337.1025720563548 L 474.0234375 346.9228011592819 L 480.029296875 355.2860401950538 L 485.595703125 362.4672361999927 L 490.869140625 368.7135047515939 L 495.849609375 374.07997571195403 L 500.68359375 378.7693599520777 L 505.517578125 382.9306704459535 L 510.05859375 386.34995689084576 L 514.306640625 389.11649865055654 L 518.408203125 391.3930841620794 L 522.36328125 393.2262677144065 L 526.171875 394.66291701081946 L 529.98046875 395.7867929879997 L 533.642578125 396.5836332615515 L 537.451171875 397.1310271985673 L 541.259765625 397.4078805649897 L 545.21484375 397.4289834786831 L 549.31640625 397.18857090970596 L 553.7109375 396.66622027556605 L 558.544921875 395.8189404338018 L 563.96484375 394.59312827558324 L 570.703125 392.77821898038513 L 594.873046875 385.9962326324113 L 600 384.9784869028531" stroke-linecap="round" stroke-linejoin="round" stroke-miterlimit="10" stroke-width="2.5" stroke-dasharray=""/></g></g></g><g id="labels-5c27f575"/><g id="labels-5c27f575"/></g></svg>